<?xml version="1.0" encoding="UTF-8" standalone="no"?>
<!-- Created with Inkscape (http://www.inkscape.org/) -->

<svg
   xmlns:dc="http://purl.org/dc/elements/1.1/"
   xmlns:cc="http://creativecommons.org/ns#"
   xmlns:rdf="http://www.w3.org/1999/02/22-rdf-syntax-ns#"
   xmlns:svg="http://www.w3.org/2000/svg"
   xmlns="http://www.w3.org/2000/svg"
   xmlns:sodipodi="http://sodipodi.sourceforge.net/DTD/sodipodi-0.dtd"
   xmlns:inkscape="http://www.inkscape.org/namespaces/inkscape"
   width="64"
   height="64"
   id="svg2"
   version="1.1"
   inkscape:version="0.48.4 r9939"
   sodipodi:docname="cam.svg"
   inkscape:export-filename="cam.png"
   inkscape:export-xdpi="90"
   inkscape:export-ydpi="90">
  <defs
     id="defs4" />
  <sodipodi:namedview
     id="base"
     pagecolor="#2c6c1a"
     bordercolor="#666666"
     borderopacity="1.0"
     inkscape:pageopacity="0.78431373"
     inkscape:pageshadow="2"
     inkscape:zoom="6.2578124"
     inkscape:cx="31.068356"
     inkscape:cy="15.700137"
     inkscape:document-units="px"
     inkscape:current-layer="layer1"
     showgrid="true"
     inkscape:snap-bbox="true"
     inkscape:window-width="1920"
     inkscape:window-height="1018"
     inkscape:window-x="1016"
     inkscape:window-y="-8"
     inkscape:window-maximized="1"
     showguides="true"
     inkscape:guide-bbox="true">
    <inkscape:grid
       type="xygrid"
       id="grid2985"
       empspacing="5"
       visible="true"
       enabled="true"
       snapvisiblegridlinesonly="true"
       spacingx="2px"
       spacingy="2px" />
    <sodipodi:guide
       orientation="0,1"
       position="34,32"
       id="guide3881" />
  </sodipodi:namedview>
  <metadata
     id="metadata7">
    <rdf:RDF>
      <cc:Work
         rdf:about="">
        <dc:format>image/svg+xml</dc:format>
        <dc:type
           rdf:resource="http://purl.org/dc/dcmitype/StillImage" />
        <dc:title></dc:title>
      </cc:Work>
    </rdf:RDF>
  </metadata>
  <g
     inkscape:groupmode="layer"
     id="layer4"
     inkscape:label="fond" />
  <g
     inkscape:groupmode="layer"
     id="layer3"
     inkscape:label="detou"
     style="display:none">
    <path
       style="fill:#ffffff;fill-opacity:1;stroke:none"
       d="m 36,24.00002 2,-2 6,-2 2,-2 6,-2 2,-2 6,-2 c 0,0 4,0 4,4 l 0,32 c 0,4 -4,4 -4,4 l -6,-2 -2,-2 -6,-2 -2,-2 -6,-2 -2,-2 z"
       id="path3885"
       inkscape:connector-curvature="0"
       sodipodi:nodetypes="ccccccccccccccccc" />
    <rect
       style="color:#000000;fill:#ffffff;fill-opacity:1;fill-rule:nonzero;stroke:none;stroke-width:3;marker:none;visibility:visible;display:inline;overflow:visible;enable-background:accumulate"
       id="rect3883"
       width="38"
       height="36"
       x="0"
       y="14"
       rx="8"
       ry="8" />
  </g>
  <g
     inkscape:label="Layer 1"
     inkscape:groupmode="layer"
     id="layer1"
     transform="translate(0,-988.36218)">
    <path
       style="color:#000000;fill:#ffffff;fill-opacity:1;fill-rule:nonzero;stroke:none;stroke-width:1;marker:none;visibility:visible;display:inline;overflow:visible;enable-background:accumulate"
       d="M 60,10 38,20 C 38,16 32.934062,14 28,14 L 10,14 C 4.46,14 0,18.46 0,24 l 0,16 c 0,5.54 4.46,10 10,10 l 18,0 c 4.934062,0 10,-2 10,-6 l 22,10 c 0,0 4,0 4,-6 l 0,-32 c 0,-6 -4,-6 -4,-6 z"
       transform="translate(0,988.36218)"
       id="rect3020"
       inkscape:connector-curvature="0"
       sodipodi:nodetypes="ccssssssccssc" />
    <g
       id="g3843"
       transform="translate(0,1)">
      <rect
         ry="5.9999976"
         rx="5.9999976"
         y="1005.3622"
         x="4"
         height="28.000109"
         width="30"
         id="rect3769"
         style="color:#000000;fill:#000000;fill-opacity:1;fill-rule:nonzero;stroke:none;stroke-width:3;marker:none;visibility:visible;display:inline;overflow:visible;enable-background:accumulate" />
      <rect
         ry="1"
         rx="1"
         y="1013.3622"
         x="4"
         height="12"
         width="20"
         id="rect3769"
         style="color:#000000;fill:#ff9900;fill-opacity:1;fill-rule:nonzero;stroke:none;stroke-width:3;marker:none;visibility:visible;display:inline;overflow:visible;enable-background:accumulate" />
      <g
         id="g3838"
         transform="translate(-2,0)">
        <path
           style="fill:#000000;fill-opacity:1;stroke:none"
           d="m 62,1003.3622 -6,2 0,28 6,2 z"
           id="path3771"
           inkscape:connector-curvature="0"
           sodipodi:nodetypes="ccccc" />
        <path
           sodipodi:nodetypes="ccccc"
           inkscape:connector-curvature="0"
           id="path3808"
           d="m 54,1007.3622 -6,2 0,20 6,2 z"
           style="fill:#000000;fill-opacity:1;stroke:none" />
        <path
           style="fill:#000000;fill-opacity:1;stroke:none"
           d="m 46,1011.3622 -6,2 0,12 6,2 z"
           id="path3810"
           inkscape:connector-curvature="0"
           sodipodi:nodetypes="ccccc" />
      </g>
    </g>
  </g>
  <g
     inkscape:groupmode="layer"
     id="layer2"
     inkscape:label="rec"
     style="display:inline" />
</svg>
